<svg xmlns="http://www.w3.org/2000/svg" viewBox="0 0 100 100" role="img"
     aria-label="מרכז ישיבות ואולפנות בני עקיבא">
  <!-- הסמל של רשת ישיבות בני עקיבא: קשתות מקוננות ומעליהן ספר פתוח.
       שורטט מחדש כוקטור כדי שיישאר חד בכל גודל וייטען ללא רשת. -->
  <g fill="none" stroke-linecap="round">
    <path d="M21.7 21.7 A40 40 0 1 1 21.7 78.3" stroke="#3E7CC4" stroke-width="11"/>
    <path d="M29.5 29.5 A29 29 0 1 1 29.5 70.5" stroke="#8CC63F" stroke-width="9.5"/>
    <path d="M36.6 36.6 A19 19 0 1 1 36.6 63.4" stroke="#9B4B9B" stroke-width="7.5"/>
    <path d="M42.2 42.2 A11 11 0 1 1 42.2 57.8" stroke="#35B6E8" stroke-width="5.5"/>
  </g>
  <g transform="translate(13 62) rotate(-8)">
    <rect width="27" height="21" rx="3.4" fill="#2E6BC4"/>
    <g fill="#FFFFFF">
      <rect x="5"    y="5.5" width="2.6" height="10.5" rx="1.3"/>
      <rect x="10.2" y="4"   width="2.6" height="12"   rx="1.3"/>
      <rect x="15.4" y="6.5" width="2.6" height="9.5"  rx="1.3"/>
      <rect x="20.6" y="5"   width="2.6" height="11"   rx="1.3"/>
    </g>
  </g>
</svg>
